<?xml version="1.0" standalone="no"?>
<!DOCTYPE svg PUBLIC "-//W3C//DTD SVG 20010904//EN"
 "http://www.w3.org/TR/2001/REC-SVG-20010904/DTD/svg10.dtd">
<svg version="1.0" xmlns="http://www.w3.org/2000/svg"
 width="700.000000pt" height="700.000000pt" viewBox="0 0 700.000000 700.000000"
 preserveAspectRatio="xMidYMid meet">
<metadata>
Created by potrace 1.14, written by Peter Selinger 2001-2017
</metadata>
<g transform="translate(0.000000,700.000000) scale(0.100000,-0.100000)"
fill="#000000" stroke="none">
<path d="M3140 6815 c-1239 -140 -2289 -945 -2745 -2103 -300 -763 -301 -1655
-3 -2417 408 -1041 1303 -1809 2390 -2050 464 -102 984 -102 1442 1 981 221
1806 865 2255 1763 167 333 273 675 328 1061 25 178 25 682 0 860 -107 754
-430 1406 -956 1930 -520 519 -1172 841 -1911 945 -162 23 -633 29 -800 10z
m1170 -1100 c0 -433 -356 -848 -757 -881 l-81 -7 -7 44 c-4 25 -2 81 5 126 52
382 352 704 735 788 110 24 105 28 105 -70z m40 -935 c229 -24 426 -109 586
-253 50 -45 141 -155 133 -161 -2 -1 -25 -17 -50 -34 -107 -72 -240 -224 -302
-347 -98 -194 -123 -434 -68 -650 63 -247 250 -474 489 -594 49 -25 50 -16 -5
-156 -148 -376 -459 -806 -659 -912 -168 -89 -318 -84 -564 20 -148 62 -221
79 -354 79 -135 0 -204 -15 -368 -81 -177 -71 -230 -84 -328 -84 -98 0 -166
22 -255 82 -220 148 -518 578 -669 967 -50 129 -102 316 -133 473 -25 125 -27
157 -27 386 -1 267 9 341 64 506 98 291 292 521 546 648 131 65 238 92 385 98
158 7 223 -6 450 -92 92 -35 192 -69 223 -76 73 -16 122 -5 321 72 284 109
391 129 585 109z"/>
</g>
</svg>
